<?xml version="1.0" encoding="UTF-8" standalone="no"?>
<!-- Created with Inkscape (http://www.inkscape.org/) -->

<svg
   xmlns:dc="http://purl.org/dc/elements/1.1/"
   xmlns:cc="http://creativecommons.org/ns#"
   xmlns:rdf="http://www.w3.org/1999/02/22-rdf-syntax-ns#"
   xmlns:svg="http://www.w3.org/2000/svg"
   xmlns="http://www.w3.org/2000/svg"
   xmlns:sodipodi="http://sodipodi.sourceforge.net/DTD/sodipodi-0.dtd"
   xmlns:inkscape="http://www.inkscape.org/namespaces/inkscape"
   width="602.36218"
   height="765.35431"
   id="svg3111"
   version="1.1"
   inkscape:version="0.48.4 r9939"
   sodipodi:docname="007.svg">
  <defs
     id="defs3113" />
  <sodipodi:namedview
     id="base"
     pagecolor="#ffffff"
     bordercolor="#666666"
     borderopacity="1.0"
     inkscape:pageopacity="0.0"
     inkscape:pageshadow="2"
     inkscape:zoom="0.81582142"
     inkscape:cx="721.73746"
     inkscape:cy="281.46882"
     inkscape:document-units="px"
     inkscape:current-layer="layer1"
     showgrid="false"
     inkscape:window-width="1918"
     inkscape:window-height="1059"
     inkscape:window-x="0"
     inkscape:window-y="19"
     inkscape:window-maximized="0"
     showguides="false"
     inkscape:guide-bbox="true"
     inkscape:snap-bbox="false"
     inkscape:object-paths="false"
     fit-margin-top="0"
     fit-margin-left="0"
     fit-margin-right="0"
     fit-margin-bottom="0"
     units="mm"
     inkscape:snap-page="true"
     inkscape:object-nodes="true">
    <sodipodi:guide
       orientation="1,0"
       position="39.302602,275.05929"
       id="guide8739" />
    <sodipodi:guide
       orientation="1,0"
       position="591.01874,271.44023"
       id="guide8741" />
  </sodipodi:namedview>
  <metadata
     id="metadata3116">
    <rdf:RDF>
      <cc:Work
         rdf:about="">
        <dc:format>image/svg+xml</dc:format>
        <dc:type
           rdf:resource="http://purl.org/dc/dcmitype/StillImage" />
        <dc:title />
      </cc:Work>
    </rdf:RDF>
  </metadata>
  <g
     inkscape:label="Layer 1"
     inkscape:groupmode="layer"
     id="layer1"
     transform="translate(-55.674301,-6.1246319)">
    <rect
       y="6.1246319"
       x="55.674274"
       height="695.83685"
       width="602.36218"
       id="rect7996"
       style="color:#000000;fill:#7d7573;fill-opacity:1;stroke:none;stroke-width:3;marker:none;visibility:visible;display:inline;overflow:visible;enable-background:accumulate" />
    <g
       id="g7938"
       transform="matrix(1.0507698,0,0,1.0507698,-510.96813,-339.81445)">
      <path
         transform="translate(431.90063,202.92382)"
         d="m 397.16333,620.89575 c 0,15.7476 -12.76595,28.51355 -28.51355,28.51355 -15.7476,0 -28.51355,-12.76595 -28.51355,-28.51355 0,-15.7476 12.76595,-28.51355 28.51355,-28.51355 15.7476,0 28.51355,12.76595 28.51355,28.51355 z"
         sodipodi:ry="28.513548"
         sodipodi:rx="28.513548"
         sodipodi:cy="620.89575"
         sodipodi:cx="368.64978"
         id="path7876"
         style="opacity:0.98999999;color:#000000;fill:#ffffff;fill-opacity:1;fill-rule:nonzero;stroke:none;stroke-width:2.1421361;marker:none;visibility:visible;display:inline;overflow:visible;enable-background:accumulate"
         sodipodi:type="arc" />
      <path
         inkscape:connector-curvature="0"
         id="path7868"
         d="m 845.82535,856.99202 c -5.95519,-0.92272 -9.78702,-4.34499 -11.2824,-10.07648 -0.70487,-2.70161 -0.478,-7.95049 0.4484,-10.37427 1.3117,-3.43188 3.40413,-5.7642 6.58809,-7.34341 4.0065,-1.98718 9.21376,-1.97787 13.44542,0.024 1.74096,0.82361 4.25988,3.10182 4.98945,4.51265 l 0.42762,0.82692 -3.18682,1.65579 c -2.92885,1.52174 -3.20136,1.60999 -3.36636,1.09012 -0.31153,-0.98155 -2.66296,-2.91139 -3.80949,-3.12648 -2.92799,-0.5493 -5.26197,0.60103 -6.5858,3.24589 -0.56559,1.12998 -0.74664,2.01873 -0.83834,4.11544 -0.26039,5.95371 1.97619,9.18484 6.36554,9.1961 2.30781,0.006 3.91993,-0.82993 5.0037,-2.59432 0.40263,-0.65549 0.83352,-1.19533 0.95752,-1.19967 0.33689,-0.0118 5.48456,2.60818 5.48456,2.79142 0,1.10983 -3.5545,4.67247 -5.7941,5.80737 -2.73584,1.38635 -5.90306,1.90506 -8.84699,1.44892 z m 27.67166,0.0295 c -0.32211,-0.0742 -1.31038,-0.28121 -2.19616,-0.46008 -3.60384,-0.72771 -7.08732,-3.26372 -8.73857,-6.36178 -2.30814,-4.33053 -2.40326,-10.90616 -0.22006,-15.21449 1.6489,-3.25394 5.14293,-5.90724 8.95863,-6.80301 2.09616,-0.49209 6.45084,-0.49692 8.49183,-0.009 7.61611,1.8192 11.7412,8.40939 10.54381,16.84468 -0.83183,5.85997 -4.37985,10.01149 -9.81176,11.48066 -1.54428,0.41768 -6.03462,0.75212 -7.02772,0.52342 z m 4.76776,-6.73313 c 2.70651,-1.13057 3.94703,-3.64571 3.96407,-8.03706 0.009,-2.25977 -0.1116,-3.05588 -0.64135,-4.24227 -1.21894,-2.72983 -3.03463,-3.93901 -5.93176,-3.95031 -2.00464,-0.008 -3.32069,0.51194 -4.55966,1.80081 -1.29342,1.34551 -1.88346,2.92308 -2.06014,5.50812 -0.28848,4.22077 1.04421,7.53874 3.5203,8.76439 1.49924,0.74212 4.1335,0.81425 5.70854,0.15632 z m 114.11782,6.73201 c -0.3221,-0.0736 -1.3035,-0.27951 -2.1809,-0.45767 -3.99693,-0.81155 -7.41788,-3.46642 -9.10084,-7.06284 -2.75968,-5.89728 -1.56743,-13.96934 2.64528,-17.90984 2.72434,-2.5483 6.24596,-3.80086 10.68626,-3.80086 9.24651,0 14.79041,5.39222 14.86871,14.46214 0.063,7.34517 -3.5475,12.56356 -9.84691,14.23003 -1.596,0.42223 -6.0848,0.76439 -7.0716,0.53904 z m 5.012,-6.83745 c 2.0722,-0.94103 3.20741,-2.86504 3.64311,-6.17469 0.4416,-3.35466 -0.4349,-6.83719 -2.11531,-8.40465 -1.7267,-1.61061 -5.172,-2.05304 -7.4395,-0.95535 -3.80269,1.84085 -4.94311,9.40052 -2.0725,13.7383 1.4619,2.20914 5.2155,3.05368 7.9842,1.79639 z m 50.91701,6.79802 c -3.0183,-0.40032 -5.8703,-1.67778 -8.5697,-3.83848 l -1.8348,-1.46866 2.5266,-2.21488 2.5266,-2.21488 1.2115,0.96209 c 2.5881,2.05518 4.74,2.86642 7.6035,2.86642 3.1396,0 4.9385,-1.23925 4.4756,-3.08334 -0.2681,-1.06824 -1.3798,-1.53622 -6.3248,-2.66237 -2.3954,-0.54554 -5.0204,-1.27798 -5.8332,-1.62765 -3.9102,-1.6821 -5.3632,-5.83536 -3.5343,-10.10211 1.5809,-3.68805 5.5983,-5.8109 10.974,-5.79891 3.8495,0.009 7.7737,1.11087 11.0304,3.09832 l 1.3674,0.83442 -2.5387,2.45874 -2.5385,2.45875 -0.7321,-0.6648 c -2.0114,-1.8266 -7.2857,-2.84918 -9.2471,-1.79285 -1.7312,0.93227 -1.5536,2.75949 0.3452,3.55288 0.5539,0.2314 2.4869,0.74262 4.2956,1.13606 6.4418,1.4012 8.5308,2.42485 9.8685,4.83571 0.9834,1.77215 1.0309,5.30795 0.099,7.36423 -0.7422,1.63755 -2.5514,3.51275 -4.2015,4.35454 -2.7471,1.4015 -7.2632,2.03831 -10.9692,1.54677 z m -253.29082,-0.59061 c -0.48316,-0.0668 -1.66909,-0.31827 -2.6354,-0.55878 -11.22164,-2.79302 -19.92623,-11.3559 -22.88384,-22.51132 -0.67822,-2.55808 -0.77724,-3.50193 -0.78333,-7.46695 -0.006,-3.97364 0.0874,-4.88999 0.75061,-7.35986 1.50112,-5.58988 4.06054,-10.16627 7.98009,-14.26881 6.4291,-6.72927 15.40193,-10.00178 24.94735,-9.09865 9.3023,0.88013 17.63806,5.85419 22.78691,13.59724 6.06191,9.11616 6.72964,21.52335 1.6841,31.29244 -4.32449,8.37302 -12.75028,14.49151 -22.23369,16.14528 -2.30293,0.40159 -7.47516,0.52503 -9.6128,0.22941 z m 9.37088,-5.90614 c 9.51532,-1.96396 17.05369,-8.96997 19.53166,-18.15231 0.87628,-3.24714 0.89117,-9.52218 0.0303,-12.7766 -2.05824,-7.78117 -7.65346,-14.25377 -14.79285,-17.11252 -3.55604,-1.42391 -5.81836,-1.84196 -9.89411,-1.82834 -4.23779,0.0142 -7.03792,0.6173 -10.51559,2.26499 -9.18455,4.35157 -15.16655,14.26439 -14.57065,24.14515 0.92259,15.29762 15.37663,26.52148 30.21121,23.45963 z m -17.01782,-15.73416 c -2.80662,-0.99537 -4.95886,-3.91646 -5.33829,-7.24528 -0.56243,-4.9344 1.29372,-8.76633 5.07904,-10.4854 2.05125,-0.93155 5.77724,-0.90955 7.99043,0.0472 1.34377,0.5809 3.86885,2.86154 3.86885,3.49432 0,0.10381 -0.87203,0.61877 -1.93786,1.14435 l -1.93785,0.9556 -1.0341,-1.0341 c -0.57685,-0.57685 -1.4595,-1.11391 -1.99615,-1.21458 -1.33086,-0.24967 -2.92408,0.34237 -3.64469,1.35437 -1.19244,1.67463 -1.27454,6.05256 -0.14581,7.77522 0.58495,0.89275 1.56912,1.5197 2.49745,1.59097 1.9509,0.14978 2.44293,-0.0188 3.59747,-1.23247 l 1.16422,-1.22384 1.49904,0.82543 c 0.82448,0.45398 1.61847,0.93307 1.76443,1.06463 0.50586,0.45596 -1.81435,2.82373 -3.68109,3.75655 -1.58635,0.79272 -2.08596,0.89781 -4.17122,0.87746 -1.30296,-0.0127 -2.9112,-0.2154 -3.57387,-0.45042 z m 17.86213,0 c -2.76782,-0.98161 -4.88396,-3.81064 -5.33894,-7.13752 -0.65904,-4.81904 1.28297,-8.86891 5.07969,-10.59316 2.20327,-1.0006 5.93763,-0.92353 8.16986,0.1686 1.38162,0.67596 3.68942,2.79689 3.68942,3.39067 0,0.10095 -0.905,0.62136 -2.0111,1.15645 l -2.01111,0.97291 -1.04102,-1.13595 c -0.93607,-1.02143 -1.18482,-1.13596 -2.46731,-1.13596 -1.76509,0 -2.90094,0.69363 -3.51377,2.14574 -0.54829,1.29918 -0.61717,4.48534 -0.12835,5.93701 0.9924,2.94719 4.63426,3.65232 6.6803,1.29342 l 0.92485,-1.06626 1.78375,0.90044 c 0.98107,0.49524 1.78376,0.9838 1.78376,1.08568 0,0.6694 -2.30468,2.81622 -3.85494,3.59089 -1.58635,0.79272 -2.08597,0.89781 -4.17122,0.87746 -1.30296,-0.0127 -2.9112,-0.2154 -3.57387,-0.45042 z m 87.14804,7.64768 0,-13.90904 4.09951,0 4.0995,0 0,1.00351 0,1.00352 1.67787,-1.01037 c 2.22609,-1.34047 3.56523,-1.69263 6.37473,-1.67638 2.79894,0.0162 4.44253,0.64019 6.27321,2.38168 l 1.23353,1.17343 0.97135,-0.85285 c 2.17401,-1.90881 6.16624,-3.08341 9.23762,-2.71792 3.27902,0.3902 5.38191,1.58837 6.51799,3.71377 0.64389,1.20459 0.65775,1.44774 0.74183,13.0136 l 0.0857,11.78608 -4.09715,0 -4.09715,0 -0.088,-9.58991 c -0.0781,-8.51079 -0.14626,-9.69645 -0.60544,-10.53663 -1.41278,-2.58508 -5.68545,-2.42088 -7.15366,0.27492 -0.46795,0.85919 -0.53619,1.99672 -0.62439,10.40812 l -0.099,9.4435 -4.07498,0 -4.07498,0 0,-9.67766 c 0,-10.62444 -0.0498,-10.96195 -1.74735,-11.83978 -1.10911,-0.57355 -3.31128,-0.56894 -4.4294,0.009 -0.48228,0.2494 -1.13409,0.8753 -1.44847,1.3909 -0.53614,0.8793 -0.57167,1.53246 -0.57269,10.52737 l -0.001,9.58992 -4.0995,0 -4.09951,0 0,-13.90903 z m 43.92326,0 0,-13.90904 4.09951,0 4.0995,0 0,1.19732 0,1.19732 0.94947,-0.79893 c 2.09922,-1.76637 5.98065,-2.73842 8.83078,-2.21155 2.22235,0.41083 3.49846,1.05195 4.7748,2.39886 l 1.06008,1.11871 1.06063,-0.84003 c 2.84274,-2.25149 6.38299,-3.23127 9.74044,-2.69569 2.3869,0.38076 3.74851,0.97593 4.92562,2.15304 1.893,1.89301 1.88438,1.82923 1.98214,14.65935 l 0.0887,11.63967 -4.09345,0 -4.09345,0 -0.098,-9.4435 c -0.10931,-10.53011 -0.21421,-11.15813 -2.01962,-12.09174 -1.45102,-0.75035 -3.84301,-0.46509 -4.94386,0.5896 -1.29518,1.24085 -1.47339,2.73121 -1.47339,12.32181 l 0,8.62383 -4.08503,0 -4.08503,0 -0.0877,-9.88273 c -0.0793,-8.94367 -0.13773,-9.95644 -0.61439,-10.65839 -0.73853,-1.08757 -1.96766,-1.51687 -3.88722,-1.35768 -2.04426,0.16952 -3.28324,1.25204 -3.65891,3.19683 -0.13589,0.70349 -0.25281,5.19923 -0.25982,9.99052 l -0.0128,8.71145 -4.0995,0 -4.09951,0 0,-13.90903 z m 75.25513,0 0,-13.90904 4.0995,0 4.0996,0 0,1.19732 0,1.19732 0.8915,-0.75015 c 3.8805,-3.26528 11.6081,-3.15062 14.1716,0.21027 1.5379,2.0163 1.6277,2.83751 1.6277,14.88262 l 0,11.08069 -4.0995,0 -4.0995,0 0,-9.52611 c 0,-10.49939 -0.091,-11.13493 -1.7193,-11.97684 -1.338,-0.69191 -3.5577,-0.59331 -4.7527,0.2111 -1.833,1.23391 -1.8635,1.41769 -1.9682,11.84835 l -0.095,9.4435 -4.078,0 -4.078,0 0,-13.90903 z M 846.55741,824.7844 c -4.70848,-0.43542 -8.95264,-3.11563 -10.82698,-6.83731 -1.5504,-3.07847 -2.10869,-8.81807 -1.19255,-12.26017 1.24078,-4.66179 4.54851,-8.2444 8.82322,-9.55645 4.80756,-1.4756 10.57289,-0.50512 14.08213,2.37044 1.14233,0.93605 3.22784,3.56308 2.97823,3.75155 -0.40821,0.30822 -5.87765,3.10329 -6.07257,3.10329 -0.13569,0 -0.59379,-0.52447 -1.018,-1.1655 -2.11664,-3.19847 -7.2446,-3.18407 -9.32617,0.0262 -1.07479,1.65758 -1.50279,3.80894 -1.34727,6.7721 0.24475,4.66292 2.23231,7.22921 5.79875,7.48719 0.93468,0.0676 2.16588,-0.031 2.73601,-0.21919 0.96275,-0.31773 2.53523,-1.79769 3.30914,-3.11443 0.31528,-0.53642 0.46099,-0.49815 3.14783,0.82653 1.54949,0.76394 2.81726,1.50184 2.81726,1.63979 0,0.44498 -1.62722,2.50449 -2.84374,3.5992 -2.9073,2.61619 -7.03272,3.9497 -11.06529,3.57679 z m 43.92007,-0.10661 c -8.71032,-1.17681 -13.12946,-8.93282 -10.84267,-19.02989 0.86059,-3.79982 3.4207,-7.32479 6.34271,-8.73317 2.14285,-1.03283 5.33351,-1.59547 8.02973,-1.41596 5.29448,0.35251 9.09634,3.06819 10.98567,7.8471 0.74131,1.87506 1.44654,5.36579 1.44654,7.16002 l 0,1.29194 -9.67639,0 -9.67639,0 0.18434,1.09808 c 0.65607,3.90815 2.7066,5.90775 6.07407,5.92321 2.05933,0.009 3.10513,-0.56262 5.13495,-2.80896 l 1.82183,-2.01617 2.84249,1.51727 c 1.56337,0.83449 2.88268,1.63781 2.93179,1.78514 0.0491,0.14734 -0.49158,1.05695 -1.20154,2.02136 -2.96434,4.02677 -8.63613,6.13837 -14.39713,5.36003 z m 7.6558,-18.75977 c -0.32738,-1.63691 -1.05426,-2.76759 -2.29737,-3.57364 -3.25327,-2.10946 -7.85635,-0.22223 -8.60652,3.5286 l -0.18938,0.94688 5.63682,0 5.63682,0 -0.18037,-0.90184 z m 17.09083,18.76988 c -2.9473,-0.51321 -5.4884,-2.33275 -6.52752,-4.67398 -0.83299,-1.8768 -0.79613,-5.2575 0.0775,-7.11205 1.65741,-3.51821 4.92695,-5.20806 12.57154,-6.49756 l 3.98079,-0.67148 -0.002,-1.77017 c -0.002,-2.1155 -0.46266,-2.76618 -2.32812,-3.28848 -2.57959,-0.72224 -5.21498,0.45592 -5.59902,2.50306 l -0.18888,1.00723 -3.9205,0 -3.92051,0 0,-0.86748 c 0,-1.57283 1.12495,-4.00049 2.37862,-5.1331 2.3716,-2.14259 5.74785,-2.97171 10.96303,-2.69222 5.50571,0.29506 8.40786,1.62873 9.81729,4.51149 0.66849,1.36729 0.68822,1.64887 0.85706,12.2339 0.0951,5.95893 0.27876,11.06501 0.40825,11.34685 0.2177,0.47382 -0.0512,0.51244 -3.56842,0.51244 -3.69722,0 -3.80881,-0.0185 -3.98042,-0.65885 -0.0971,-0.36237 -0.17837,-0.95533 -0.18057,-1.3177 -0.005,-0.87035 -0.13932,-0.8393 -1.53536,0.35566 -1.99641,1.70886 -6.30733,2.73407 -9.30304,2.21244 z m 6.82208,-6.25796 c 1.44226,-0.60262 2.73462,-2.26271 3.10464,-3.98804 0.43744,-2.0397 0.41695,-3.81607 -0.044,-3.81259 -0.8906,0.007 -7.10483,2.04435 -7.79757,2.55681 -2.77349,2.05167 -1.27215,5.63943 2.35987,5.63943 0.78662,0 1.85629,-0.17802 2.37705,-0.39561 z m 23.39807,6.23413 c -2.6337,-0.46531 -4.21172,-1.65008 -5.24136,-3.93517 -0.46417,-1.03016 -0.53891,-2.25625 -0.62025,-10.17556 l -0.0925,-9.00427 -2.04252,0 -2.04252,0 0.085,-2.41578 0.0851,-2.41578 1.97655,-0.0866 1.97654,-0.0866 0,-3.93971 0,-3.93972 4.09951,0 4.0995,0 0,3.9531 0,3.95309 2.48899,0 2.48898,0 0,2.47714 0,2.47715 -2.41578,0.085 -2.41578,0.085 -0.0854,6.7349 c -0.0469,3.7042 -0.007,7.1705 0.0895,7.70291 0.28645,1.58537 1.04618,2.10662 3.07045,2.10662 l 1.75693,0 0,3.22104 0,3.22104 -1.3909,0.003 c -0.765,10e-4 -2.04975,0.059 -2.85501,0.12806 -0.80526,0.069 -2.16207,0.002 -3.01512,-0.14852 z m 58.06554,0.0134 c -5.67691,-0.80448 -9.68581,-4.43511 -10.98681,-9.94997 -0.5009,-2.12315 -0.4385,-6.43031 0.1287,-8.87569 1.3667,-5.89324 5.088,-9.3674 10.94851,-10.22159 8.9774,-1.30847 15.0435,4.03355 15.7822,13.89829 l 0.1699,2.26937 -9.7247,0 c -9.1215,0 -9.7157,0.0318 -9.5799,0.51244 0.08,0.28184 0.231,1.06753 0.3364,1.74597 0.4211,2.70987 2.9203,4.74991 5.8347,4.76288 2.1059,0.009 3.7776,-0.91329 5.37,-2.96388 0.7325,-0.94316 1.4753,-1.7124 1.6508,-1.70941 0.1754,0.003 1.5931,0.69535 3.1503,1.5386 l 2.8313,1.53318 -0.8844,1.31641 c -1.4304,2.12906 -2.8474,3.42669 -4.9007,4.48785 -3.0237,1.56264 -6.626,2.15158 -10.1263,1.65555 z m 7.6635,-18.92348 c -0.2438,-1.50247 -1.4208,-3.14589 -2.6815,-3.74412 -3.3995,-1.61316 -7.3175,0.29628 -8.2175,4.00478 l -0.1954,0.80526 5.6337,0 5.6336,0 -0.1729,-1.06592 z m -148.58674,4.36017 0.076,-13.98224 4.01072,-0.0814 4.01071,-0.0814 0.0888,1.46113 0.0888,1.46112 1.26764,-0.85327 c 1.18947,-0.80065 3.08855,-1.47757 5.22116,-1.86105 1.20329,-0.21638 1.27098,-0.009 1.27098,3.89168 l 0,3.15691 -2.26937,0.3553 c -1.24815,0.19541 -2.81714,0.61462 -3.48664,0.93158 -2.0876,0.98833 -2.15018,1.31029 -2.15018,11.06303 l 0,8.52079 -4.10234,0 -4.10235,0 0.0761,-13.98224 z m 93.33977,-0.0815 0,-14.06371 4.0263,0.0815 4.0263,0.0815 0.0761,13.98224 0.076,13.98224 -4.10234,0 -4.10235,0 0,-14.06371 z m 14.57912,0.5207 c -2.52447,-7.44865 -4.63036,-13.74066 -4.67976,-13.98224 -0.076,-0.37165 0.56943,-0.45167 4.19503,-0.52007 3.26834,-0.0617 4.31652,0.008 4.41831,0.29282 0.0734,0.20551 1.1685,4.62324 2.43356,9.81716 1.26506,5.19393 2.37341,9.44195 2.463,9.44005 0.0896,-0.002 1.22683,-4.38324 2.52719,-9.73632 l 2.36429,-9.73287 4.29742,-0.081 c 2.5734,-0.0485 4.2974,0.0305 4.2974,0.19692 0,0.15288 -1.728,5.32837 -3.8399,11.50109 -2.11193,6.17272 -4.23202,12.37611 -4.71131,13.78532 l -0.87143,2.56219 -4.15194,0 -4.15193,0 -4.58993,-13.54301 z m -14.57912,-20.70888 0,-3.2293 4.10941,0 4.10941,0 -0.0831,3.14783 -0.0831,3.14784 -4.0263,0.0815 -4.0263,0.0815 0,-3.22931 z"
         style="fill:#000000" />
    </g>
    <g
       id="g7948"
       transform="matrix(0.96042769,0,0,0.96042769,2.2031325,-61.901363)">
      <rect
         y="546.36456"
         x="98.251968"
         height="137.55275"
         width="176.85355"
         id="rect7874"
         style="opacity:0.98999999;color:#000000;fill:#ffffff;fill-opacity:1;fill-rule:nonzero;stroke:none;stroke-width:2.1421361;marker:none;visibility:visible;display:inline;overflow:visible;enable-background:accumulate" />
      <path
         inkscape:connector-curvature="0"
         id="path7872"
         d="m 98.655628,689.20876 c -3.19316,-1.73259 -3.00924,2.74951 -3.00924,-73.33565 0,-76.34829 -0.19973,-71.64626 3.11614,-73.36096 1.351352,-0.69881 11.843722,-0.79215 89.053032,-0.79215 77.20932,0 87.70167,0.0933 89.05303,0.79215 3.3159,1.7147 3.11615,-2.98733 3.11615,73.36096 0,76.34829 0.19975,71.64626 -3.11615,73.36096 -1.35183,0.69907 -11.82742,0.78969 -89.15765,0.77123 -76.48764,-0.0183 -87.807522,-0.11949 -89.055312,-0.79654 z m 176.629272,-7.79893 0,-1.30551 -87.20823,0 -87.20823,0 0,1.30551 0,1.30551 87.20823,0 87.20823,0 0,-1.30551 z m -8.35528,-8.61638 0,-3.65543 -12.59517,0 -12.59516,0 -3.11245,1.8907 c -1.71184,1.03989 -2.9175,2.06444 -2.67933,2.27677 0.23823,0.21233 1.36891,1.00646 2.51259,1.76473 l 2.07953,1.37866 13.19497,0 13.19502,0 0,-3.65543 z m -64.49232,-24.6077 c 0.93617,-0.90212 1.06184,-1.81691 1.21259,-8.82646 l 0.16817,-7.82003 -1.851,0 -1.85101,0 -0.14488,7.44142 -0.14489,7.44142 -1.43607,0.16524 c -1.11239,0.12799 -1.43606,0.44185 -1.43606,1.39254 0,0.67502 0.29374,1.34835 0.65276,1.49628 1.11963,0.46133 3.73857,-0.23829 4.83039,-1.29041 z m -10.14422,-3.07128 c 2.69264,-0.748 4.11431,-2.50828 4.47321,-5.53866 0.62752,-5.29842 -2.21049,-8.39058 -7.25598,-7.90577 -3.4938,0.33571 -5.14553,1.99441 -5.48296,5.5061 -0.38304,3.98639 0.59895,6.28016 3.19286,7.45801 2.52967,1.14867 2.63205,1.15836 5.07287,0.48032 z m -3.87438,-3.56388 c -1.24298,-1.37349 -1.13915,-5.03658 0.18017,-6.3559 1.98639,-1.98639 4.09554,-0.8308 4.54066,2.48778 0.52341,3.90229 -2.47013,6.35511 -4.72083,3.86812 z m 38.94993,3.22667 c 0.2176,-0.13449 0.39562,-0.78926 0.39562,-1.45506 0,-1.12551 -0.16481,-1.19198 -2.34569,-0.94615 -3.18326,0.35879 -3.92077,-0.35357 -3.92077,-3.78702 0,-3.35405 0.76895,-4.16104 3.6028,-3.78095 1.75575,0.2355 2.10088,0.10771 2.58632,-0.95767 0.65328,-1.43384 0.42299,-1.63783 -2.34956,-2.08118 -4.37184,-0.69908 -7.5856,2.16213 -7.57886,6.74746 0.006,3.81205 1.17506,5.69788 4.09758,6.60754 1.36087,0.4236 4.59509,0.22004 5.51256,-0.34697 z m -65.40221,-1.69138 c 0,-1.8993 0.11585,-2.05243 1.79045,-2.36659 2.49714,-0.46847 3.9342,-1.80923 4.2843,-3.99721 0.23804,-1.4877 0.0438,-2.16334 -0.95637,-3.32607 -1.10114,-1.28015 -1.71619,-1.49212 -5.01445,-1.72811 l -3.75937,-0.26897 0,6.85882 0,6.85884 1.82772,0 c 1.77548,0 1.82772,-0.058 1.82772,-2.03071 z m 0,-6.84678 c 0,-1.2026 0.23551,-1.56661 1.01359,-1.56661 0.55747,0 1.16012,0.23709 1.33922,0.52688 0.57043,0.92297 -0.29736,2.60635 -1.34359,2.60635 -0.77322,0 -1.00922,-0.36635 -1.00922,-1.56662 z m 12.53292,6.48405 c 0,-2.94399 0.80009,-2.87653 2.51959,0.21243 1.10483,1.98472 1.39904,2.18101 3.26912,2.18101 l 2.05503,0 -1.87748,-2.8277 -1.87749,-2.82769 1.08884,-1.08884 c 1.17334,-1.17334 1.40875,-3.17078 0.5605,-4.75577 -0.64002,-1.19588 -3.55462,-2.07048 -6.91307,-2.07442 l -2.48048,-0.003 0,6.78866 0,6.78867 1.82772,0 c 1.82297,0 1.82772,-0.006 1.82772,-2.39344 z m 0,-6.70883 c 0,-1.14736 0.25097,-1.86096 0.65275,-1.85604 2.22346,0.0273 2.69629,3.24444 0.52221,3.55321 -1.0302,0.14631 -1.17496,-0.0628 -1.17496,-1.69717 z m 40.73199,7.79675 c 0,-1.17496 -0.20888,-1.30551 -2.08882,-1.30551 -1.87994,0 -2.08883,-0.13055 -2.08883,-1.30551 0,-1.14388 0.22629,-1.30551 1.82773,-1.30551 1.68265,0 1.82771,-0.12434 1.82771,-1.56662 0,-1.44228 -0.14506,-1.56661 -1.82771,-1.56661 -1.47959,0 -1.82773,-0.19894 -1.82773,-1.04441 0,-0.87035 0.34814,-1.04441 2.08883,-1.04441 1.97279,0 2.08882,-0.087 2.08882,-1.56662 l 0,-1.56661 -3.91654,0 -3.91654,0 0,6.78866 0,6.78867 3.91654,0 c 3.82949,0 3.91654,-0.029 3.91654,-1.30552 z m 21.93261,-3.91653 0,-5.22205 1.56661,0 c 1.39669,0 1.56662,-0.17197 1.56662,-1.58553 l 0,-1.58552 -5.0915,0.14946 -5.0915,0.14946 -0.16523,1.43606 c -0.15295,1.32906 -0.0266,1.43607 1.69717,1.43607 l 1.86239,0 0,5.22205 0,5.22205 1.82772,0 1.82772,0 0,-5.22205 z m -75.19752,-20.10489 c 0,-2.33749 0.01,-2.34993 1.82772,-2.34993 3.18071,0 5.18935,-3.19361 3.92637,-6.2427 -0.76182,-1.83919 -2.75936,-2.63478 -6.61532,-2.63478 l -2.79421,0 0,6.78866 0,6.78867 1.82772,0 c 1.81805,0 1.82772,-0.0124 1.82772,-2.34992 z m 0,-6.52757 c 0,-1.22654 0.23027,-1.56661 1.06079,-1.56661 1.31463,0 1.8858,1.31637 1.02251,2.35657 -1.08203,1.30377 -2.0833,0.9241 -2.0833,-0.78996 z m 18.72364,8.13335 c 1.85866,-0.96116 2.68676,-2.83973 2.68676,-6.09503 0,-4.97289 -2.34961,-7.09687 -7.32221,-6.61907 -3.12645,0.30042 -4.49497,1.40052 -5.25543,4.22463 -0.96676,3.59029 0.36951,7.72064 2.81674,8.70639 1.78214,0.71785 5.48612,0.60427 7.07414,-0.21692 z m -4.98309,-2.27716 c -1.88566,-1.19901 -1.98223,-6.4493 -0.13678,-7.43695 2.5006,-1.33828 4.1512,0.10346 4.1512,3.62595 0,3.31072 -1.92589,5.139 -4.01442,3.811 z m 19.68057,1.71579 c 0,-1.21848 -0.17407,-1.30552 -2.61103,-1.30552 l -2.61102,0 0,-5.48315 0,-5.48315 -1.82772,0 -1.82772,0 0,6.78866 0,6.78867 4.43874,0 c 4.38652,0 4.43875,-0.0153 4.43875,-1.30551 z m 6.26645,-5.48316 0,-6.78866 -1.82771,0 -1.82772,0 0,6.78866 0,6.78867 1.82772,0 1.82771,0 0,-6.78867 z m 12.95874,5.09681 c 0.16219,-1.40873 0.12914,-1.42588 -2.147,-1.1139 -2.02346,0.27735 -2.41839,0.16453 -3.16739,-0.90481 -1.22102,-1.74326 -1.10524,-4.91735 0.22799,-6.25059 0.87504,-0.87503 1.4692,-1.01855 3.08598,-0.74539 1.74433,0.2947 2.04825,0.19375 2.35839,-0.78339 0.46236,-1.45686 0.23217,-1.63782 -2.47092,-1.9425 -5.03287,-0.56728 -8.08369,2.59758 -7.57792,7.86122 0.20522,2.13579 0.57082,2.92068 1.92329,4.12912 1.48551,1.3273 1.99747,1.47488 4.63638,1.33653 2.80048,-0.14683 2.97568,-0.23561 3.1312,-1.58629 z m 10.01829,-0.73565 c 0,-1.89437 0.5221,-3.3853 2.37728,-6.78866 l 2.37724,-4.36116 -1.86182,0 c -1.68938,0 -1.96762,0.2177 -3.00357,2.34992 -0.6279,1.29246 -1.283,2.34992 -1.45575,2.34992 -0.17274,0 -0.82785,-1.05746 -1.45575,-2.34992 -1.03845,-2.13741 -1.31141,-2.34992 -3.0185,-2.34992 l -1.8768,0 2.39222,4.38857 c 1.8579,3.4084 2.39222,4.92463 2.39222,6.78867 0,2.31863 0.0532,2.40009 1.56661,2.40009 1.51602,0 1.56662,-0.0784 1.56662,-2.42751 z m -55.50874,-22.24595 c 2.46658,-2.46659 2.14274,-9.24594 -0.52413,-10.9722 -2.8836,-1.86655 -6.99533,-1.47325 -9.2067,0.88065 -2.54119,2.70498 -1.8584,8.89499 1.19274,10.81307 2.3714,1.49076 6.69082,1.12574 8.53809,-0.72152 z m -6.86515,-2.5974 c -1.73021,-2.47022 -0.43819,-6.67246 2.05152,-6.67246 0.68123,0 1.60788,0.36927 2.05921,0.8206 0.93582,0.93583 1.10066,4.46903 0.28003,6.00239 -0.76415,1.42783 -3.34726,1.33927 -4.39076,-0.15053 z m 15.37544,1.94392 c 0,-2.17066 0.10157,-2.34992 1.33144,-2.34992 2.41826,0 4.33331,-1.39508 4.71611,-3.4356 0.72428,-3.86074 -1.19446,-5.44189 -6.60375,-5.44189 l -3.09924,0 0,6.78867 0,6.78866 1.82772,0 c 1.81805,0 1.82772,-0.0124 1.82772,-2.34992 z m 0,-6.78867 c 0,-1.84635 0.28401,-2.08673 1.785,-1.51074 0.97729,0.37502 1.08405,1.82714 0.19938,2.71182 -1.18148,1.18147 -1.98438,0.6955 -1.98438,-1.20108 z m 17.13689,7.70253 c -0.14785,-1.285 -0.39869,-1.45296 -2.3846,-1.59664 -1.96144,-0.14192 -2.21937,-0.30882 -2.21937,-1.43607 0,-1.13993 0.22199,-1.27548 2.08882,-1.27548 1.87993,0 2.08882,-0.13056 2.08882,-1.30552 0,-1.17496 -0.20889,-1.30551 -2.08882,-1.30551 -1.87994,0 -2.08882,-0.13055 -2.08882,-1.30551 0,-1.19914 0.19147,-1.30551 2.34992,-1.30551 2.15844,0 2.34992,-0.10638 2.34992,-1.30552 0,-1.28375 -0.0696,-1.30551 -4.17764,-1.30551 l -4.17764,0 0,6.78867 0,6.78866 4.21233,0 4.21232,0 -0.16524,-1.43606 z m 5.95108,-3.34117 0.15015,-4.77724 2.51604,4.77724 2.51604,4.77723 2.31435,0 2.31436,0 0,-6.78866 0,-6.78867 -1.54629,0 -1.54628,0 -0.15088,4.56929 -0.15088,4.5693 -2.33575,-4.5693 -2.33575,-4.56929 -2.49465,0 -2.49464,0 0,6.78867 0,6.78866 1.54701,0 1.54702,0 0.15015,-4.77723 z m 26.5215,3.21062 c 0,-1.47958 -0.11603,-1.56662 -2.08882,-1.56662 -1.87993,0 -2.08882,-0.13055 -2.08882,-1.30551 0,-1.17496 0.20889,-1.30551 2.08882,-1.30551 1.87994,0 2.08882,-0.13056 2.08882,-1.30552 0,-1.17496 -0.20888,-1.30551 -2.08882,-1.30551 -1.87993,0 -2.08882,-0.13055 -2.08882,-1.30551 0,-1.17496 0.20889,-1.30551 2.08882,-1.30551 1.87994,0 2.08882,-0.13055 2.08882,-1.30552 0,-1.27649 -0.0871,-1.30551 -3.91653,-1.30551 l -3.91654,0 0,6.78867 0,6.78866 3.91654,0 3.91653,0 0,-1.56661 z m 10.96631,0.65194 c 3.21459,-1.60586 4.593,-6.20165 2.8633,-9.54652 -1.13512,-2.19507 -3.28582,-3.11614 -7.27609,-3.11614 l -3.42029,0 0,6.78867 0,6.78866 3.00268,-10e-4 c 1.81216,-4.9e-4 3.72734,-0.36283 4.8304,-0.91386 z m -4.17764,-6.1351 c 0,-3.5684 0.0928,-3.91653 1.04441,-3.91653 1.60155,0 3.13323,1.85776 3.13323,3.80034 0,2.23957 -1.29027,4.03273 -2.90174,4.03273 -1.23966,0 -1.2759,-0.11127 -1.2759,-3.91654 z m 19.81308,6.28233 c 1.96934,-1.01838 2.64173,-3.16889 2.64173,-8.44907 l 0,-4.36082 -1.82772,0 -1.82771,0 0,4.39603 c 0,5.41413 -0.22288,6.04807 -2.12632,6.04807 -2.06093,0 -2.57353,-1.24133 -2.57353,-6.23213 l 0,-4.21197 -1.56661,0 -1.56662,0 0,5.26222 c 0,5.11986 0.0413,5.30351 1.52646,6.78866 1.75691,1.75694 4.78366,2.07077 7.32032,0.75901 z m -115.81206,-2.24029 c 5.9083,-2.90984 9.55936,-8.23974 10.17729,-14.85708 0.73304,-7.84996 -3.36274,-14.82146 -10.77369,-18.3381 -2.90513,-1.37855 -3.97237,-1.60432 -7.57197,-1.60184 -3.45738,0.003 -4.73815,0.25375 -7.32342,1.43725 -10.73619,4.91489 -14.46255,17.68299 -7.95876,27.27013 2.1548,3.17635 4.64186,5.15501 8.52956,6.78596 2.57072,1.07845 3.78273,1.27005 7.27466,1.14997 3.49957,-0.12033 4.75959,-0.42458 7.64633,-1.84629 z m -12.88479,-2.0765 c -7.20575,-2.57935 -11.69766,-9.99446 -10.22216,-16.87447 1.64056,-7.64967 7.42979,-12.49662 14.92603,-12.49662 15.83106,0 20.96124,21.53884 6.78246,28.47588 -3.69641,1.80848 -7.99834,2.14376 -11.48633,0.89521 z m 2.10409,-9.31674 c 2.1082,-1.00041 2.63479,-2.11437 1.32966,-2.81285 -0.71163,-0.38086 -1.14093,-0.3134 -1.61111,0.25313 -0.77307,0.9315 -2.67774,1.00984 -3.54189,0.14569 -0.66355,-0.66355 -0.8414,-3.42813 -0.30967,-4.81379 0.36331,-0.94678 2.83798,-1.11762 3.70016,-0.25544 0.41264,0.41264 0.9028,0.39278 1.77077,-0.0717 l 1.20019,-0.64232 -1.43435,-1.23378 c -3.97838,-3.42206 -9.85163,0.20683 -8.95208,5.53121 0.66061,3.91012 4.16115,5.64956 7.84832,3.89989 z m 11.08561,-0.21505 c 1.91446,-1.16726 2.11186,-1.81057 0.78364,-2.55388 -0.65817,-0.36833 -1.1632,-0.28529 -1.80668,0.29705 -2.19369,1.98526 -4.84438,-0.81567 -3.74103,-3.95306 0.56255,-1.5996 1.92972,-1.99478 3.67316,-1.06172 1.06613,0.57058 1.38307,0.53943 2.13209,-0.20959 0.81533,-0.81534 0.81706,-0.94253 0.0236,-1.73602 -0.47092,-0.47091 -2.00567,-0.96666 -3.41056,-1.10165 -2.14217,-0.20584 -2.78565,-0.0465 -3.98782,0.98758 -2.8593,2.45947 -2.29709,8.21956 0.93984,9.62901 2.22783,0.97007 3.42263,0.90412 5.39379,-0.29772 z m 27.80742,-9.92761 c 0,-1.47958 -0.11605,-1.56662 -2.08882,-1.56662 -1.87994,0 -2.08882,-0.13055 -2.08882,-1.30551 0,-1.17852 0.20657,-1.30551 2.1235,-1.30551 2.00848,0 2.11456,-0.0778 1.95827,-1.43607 -0.14345,-1.24676 -0.42337,-1.45742 -2.1235,-1.59813 -1.53412,-0.12698 -1.95827,-0.38147 -1.95827,-1.17496 0,-0.83357 0.3698,-1.01289 2.08882,-1.01289 1.87994,0 2.08882,-0.13055 2.08882,-1.30551 0,-1.2765 -0.087,-1.30552 -3.91654,-1.30552 l -3.91654,0 0,6.78867 0,6.78866 3.91654,0 3.91654,0 0,-1.56661 z m 11.42645,0.98779 c 2.46058,-0.85776 3.19529,-2.75995 3.19529,-8.27273 l 0,-4.72578 -1.82772,0 -1.82772,0 0,4.6359 c 0,5.01963 -0.48131,6.03408 -2.71283,5.71774 -1.15072,-0.16313 -1.21029,-0.39475 -1.35317,-5.26214 l -0.14946,-5.0915 -1.8088,0 -1.80881,0 0,4.66585 c 0,5.64754 0.51031,7.16328 2.7376,8.13127 2.08512,0.90622 3.39731,0.95378 5.55562,0.20139 z m 10.40422,-2.16275 c 0.0875,-1.36426 0.32253,-2.48024 0.5222,-2.47994 0.19968,2.9e-4 1.02283,1.17525 1.82923,2.61102 1.31595,2.343 1.65038,2.61049 3.26378,2.61049 0.98868,0 1.7976,-0.17938 1.7976,-0.39862 0,-0.21925 -0.83139,-1.63316 -1.84752,-3.14203 -1.44574,-2.1468 -1.68326,-2.80642 -1.09222,-3.03322 1.23746,-0.47487 2.01762,-2.95838 1.4217,-4.52577 -0.7317,-1.92452 -2.07564,-2.47769 -6.01961,-2.47769 l -3.42866,0 0,6.82175 0,6.82176 1.69717,-0.16364 c 1.62731,-0.1569 1.70371,-0.26573 1.85633,-2.64411 z m 0.10194,-6.65812 c 0,-1.2026 0.23551,-1.56661 1.01359,-1.56661 0.55747,0 1.16012,0.23709 1.33922,0.52688 0.57043,0.92297 -0.29736,2.60635 -1.3436,2.60635 -0.77321,0 -1.00921,-0.36634 -1.00921,-1.56662 z m 20.408,7.43411 c 2.54446,-2.84775 2.42382,-8.00551 -0.24592,-10.5136 -2.55252,-2.39798 -8.0559,-1.75666 -9.96801,1.16158 -1.04951,1.60175 -1.15386,5.98169 -0.19081,8.00941 1.68398,3.54567 7.73826,4.32691 10.40474,1.34261 z m -6.8123,-2.17773 c -0.73884,-1.38053 -0.68263,-5.42766 0.0861,-6.19635 0.88414,-0.88414 3.29694,-0.77866 4.09163,0.17887 0.83645,1.00787 0.81245,5.2431 -0.0355,6.26482 -0.92849,1.11876 -3.49305,0.96562 -4.1422,-0.24734 z m 15.12557,1.86013 c 0,-2.26123 0.0204,-2.2864 2.09619,-2.61837 2.82946,-0.45245 4.17027,-1.88649 4.17027,-4.46024 0,-3.07723 -1.71111,-4.21554 -6.3369,-4.21554 l -3.58499,0 0,6.44053 c 0,3.54229 0.15666,6.59719 0.34815,6.78866 0.19144,0.19148 1.01392,0.34814 1.82772,0.34814 1.39899,0 1.47956,-0.12429 1.47956,-2.28318 z m 0,-7.11651 c 0,-1.40127 0.17056,-1.61503 1.17497,-1.47238 0.86064,0.12223 1.17496,0.5161 1.17496,1.47238 0,0.95629 -0.31432,1.35015 -1.17496,1.47239 -1.00441,0.14264 -1.17497,-0.0711 -1.17497,-1.47239 z m 17.23277,7.83308 c 0,-1.5086 -0.087,-1.56662 -2.34992,-1.56662 -2.15843,0 -2.34993,-0.10637 -2.34993,-1.30551 0,-1.17496 0.20888,-1.30551 2.08882,-1.30551 1.97279,0 2.08882,-0.087 2.08882,-1.56662 0,-1.47958 -0.11603,-1.56661 -2.08882,-1.56661 -1.74066,0 -2.08882,-0.17407 -2.08882,-1.04441 0,-0.88968 0.34816,-1.04441 2.34993,-1.04441 2.15843,0 2.34992,-0.10638 2.34992,-1.30551 0,-1.28376 -0.0696,-1.30552 -4.17764,-1.30552 l -4.17764,0 0,6.44053 c 0,3.54229 0.15666,6.59719 0.34815,6.78866 0.19144,0.19148 2.07138,0.34814 4.17764,0.34814 l 3.82949,0 0,-1.56661 z m 5.52983,0.2611 c 0.29281,-1.16675 0.59527,-1.30551 2.84576,-1.30551 2.21373,0 2.53823,0.142 2.68492,1.17496 0.1353,0.95242 0.55098,1.20644 2.19472,1.34118 1.50802,0.12361 1.96161,-0.0102 1.7696,-0.5222 -0.14204,-0.37864 -1.16442,-3.44959 -2.27196,-6.82434 l -2.01373,-6.13591 -2.4542,0 -2.45421,0 -2.13206,6.39778 c -1.17261,3.51878 -2.13206,6.57368 -2.13206,6.78867 0,0.21498 0.81798,0.39088 1.81775,0.39088 1.50348,0 1.87445,-0.22575 2.14547,-1.30551 z m 1.43346,-5.18497 c 0.15749,-0.41042 0.4434,-1.58332 0.63531,-2.60645 0.39453,-2.10298 1.00253,-2.06994 1.43596,0.078 0.16058,0.79581 0.45108,1.85817 0.64555,2.36079 0.2917,0.75412 0.0602,0.91386 -1.32483,0.91386 -1.24024,0 -1.60359,-0.19478 -1.39199,-0.74623 z m 13.41095,1.66009 0.008,-4.8304 2.62423,4.8304 2.62424,4.83039 2.32846,0 2.32846,0 0,-6.78866 0,-6.78867 -1.5463,0 -1.54625,0 -0.15092,4.5693 -0.15086,4.56929 -2.34992,-4.43874 -2.34993,-4.43874 -2.48047,-0.15917 -2.48047,-0.15916 0,6.81728 0,6.81727 1.56661,0 1.56662,0 0.008,-4.83039 z"
         style="fill:#000000" />
    </g>
    <flowRoot
       xml:space="preserve"
       id="flowRoot7952"
       style="font-size:13px;font-style:normal;font-variant:normal;font-weight:900;font-stretch:normal;text-align:center;line-height:125%;letter-spacing:0px;word-spacing:0px;writing-mode:lr-tb;text-anchor:middle;fill:#ccc9c8;fill-opacity:1;stroke:none;font-family:Roboto;-inkscape-font-specification:Roboto Heavy"
       transform="matrix(1.754231,0,0,1.754231,-87.376824,-262.38991)"><flowRegion
         id="flowRegion7954"><rect
           id="rect7957"
           width="325.37289"
           height="71.790466"
           x="92.632843"
           y="296.24658"
           style="font-size:13px;font-style:normal;font-variant:normal;font-weight:900;font-stretch:normal;text-align:center;line-height:125%;writing-mode:lr-tb;text-anchor:middle;fill:#ccc9c8;fill-opacity:1;font-family:Roboto;-inkscape-font-specification:Roboto Heavy" /></flowRegion><flowPara
         id="flowPara7959">If you care about this issue and want to know more, find out about our efforts in our website:</flowPara></flowRoot>    <path
       style="fill:none;stroke:#ff7f50;stroke-width:4.84010124;stroke-linecap:butt;stroke-linejoin:miter;stroke-miterlimit:4;stroke-opacity:1;stroke-dasharray:none"
       d="m 93.654139,331.91017 529.848961,0"
       id="path8737"
       inkscape:connector-curvature="0" />
    <path
       inkscape:connector-curvature="0"
       id="path8743"
       d="m 93.654139,426.9938 529.848961,0"
       style="fill:none;stroke:#ff7f50;stroke-width:4.84010124;stroke-linecap:butt;stroke-linejoin:miter;stroke-miterlimit:4;stroke-opacity:1;stroke-dasharray:none" />
    <rect
       style="opacity:0.98999999;color:#000000;fill:#7d7573;fill-opacity:1;fill-rule:nonzero;stroke:none;stroke-width:5;marker:none;visibility:visible;display:inline;overflow:visible;enable-background:accumulate"
       id="rect8745"
       width="52.686516"
       height="26.736443"
       x="347.22122"
       y="316.37784" />
    <rect
       y="418.12918"
       x="232.584"
       height="26.736443"
       width="25.837313"
       id="rect8747"
       style="opacity:0.98999999;color:#000000;fill:#7d7573;fill-opacity:1;fill-rule:nonzero;stroke:none;stroke-width:5;marker:none;visibility:visible;display:inline;overflow:visible;enable-background:accumulate" />
    <rect
       style="opacity:0.98999999;color:#000000;fill:#7d7573;fill-opacity:1;fill-rule:nonzero;stroke:none;stroke-width:5;marker:none;visibility:visible;display:inline;overflow:visible;enable-background:accumulate"
       id="rect8749"
       width="30.519791"
       height="27.487062"
       x="589.53925"
       y="252.26387"
       transform="matrix(0.95209027,0.30581713,-0.41983867,0.90759875,0,0)" />
    <flowRoot
       xml:space="preserve"
       id="flowRoot3178"
       style="font-size:13px;font-style:normal;font-variant:normal;font-weight:300;font-stretch:normal;line-height:125%;letter-spacing:0px;word-spacing:0px;fill:#ffffff;fill-opacity:1;stroke:none;font-family:Roboto;-inkscape-font-specification:Roboto Light"
       transform="matrix(7.940979,0,0,7.940979,-516.8758,-3489.1722)"><flowRegion
         id="flowRegion3180"><rect
           id="rect3182"
           width="584.48407"
           height="96.409744"
           x="76.324379"
           y="477.92081"
           style="font-style:normal;font-variant:normal;font-weight:300;font-stretch:normal;fill:#ffffff;font-family:Roboto;-inkscape-font-specification:Roboto Light" /></flowRegion><flowPara
         id="flowPara3184">oerpolicy.eu</flowPara></flowRoot>    <rect
       style="opacity:0.98999999;color:#000000;fill:#ff7f50;fill-opacity:1;fill-rule:nonzero;stroke:none;stroke-width:5;marker:none;visibility:visible;display:inline;overflow:visible;enable-background:accumulate"
       id="rect8751"
       width="602.36218"
       height="151.30232"
       x="55.674274"
       y="621.16766" />
    <flowRoot
       transform="matrix(1.1616186,0,0,1.1616186,41.906816,333.63177)"
       style="font-size:13px;font-style:normal;font-variant:normal;font-weight:500;font-stretch:normal;text-align:start;line-height:125%;letter-spacing:0px;word-spacing:0px;writing-mode:lr-tb;text-anchor:start;fill:#ffffff;fill-opacity:1;stroke:none;font-family:Roboto;-inkscape-font-specification:Roboto Medium"
       id="flowRoot3166"
       xml:space="preserve"><flowRegion
         id="flowRegion3168"><rect
           style="font-size:13px;font-style:normal;font-variant:normal;font-weight:500;font-stretch:normal;text-align:start;line-height:125%;writing-mode:lr-tb;text-anchor:start;fill:#ffffff;font-family:Roboto;-inkscape-font-specification:Roboto Medium"
           y="261.28311"
           x="134.92372"
           height="70.97747"
           width="251.35481"
           id="rect3170" /></flowRegion><flowPara
         id="flowPara3174">Data and graphics are licensed under the CC Attribution 4.0 International license.</flowPara></flowRoot>    <g
       id="layer1-8"
       inkscape:label="Layer 1"
       transform="matrix(0.73155235,0,0,0.73155235,95.095447,640.6358)">
      <g
         inkscape:export-ydpi="300.23013"
         inkscape:export-xdpi="300.23013"
         inkscape:export-filename="/mnt/hgfs/Bov/Documents/Work/2007/cc/identity/srr buttons/big/by.png"
         id="g260"
         transform="matrix(0.9937728,0,0,0.9936696,-177.69267,6.25128e-7)">
        <path
           style="fill:#aab2ab"
           d="m 181.96579,0.51074 114.06396,0.20264 c 1.59375,0 3.01758,-0.23633 3.01758,3.18066 l -0.13965,37.56689 -119.82031,0 0,-37.70654 c 0,-1.68505 0.16309,-3.24365 2.87842,-3.24365 z"
           nodetypes="ccccccc"
           id="path3817_1_"
           inkscape:connector-curvature="0" />
        <path
           id="path263"
           d="m 297.29636,0 -116.229,0 c -1.24658,0 -2.26123,1.01416 -2.26123,2.26074 l 0,39.49658 c 0,0.28174 0.229,0.51025 0.51074,0.51025 l 119.73047,0 c 0.28174,0 0.51074,-0.22852 0.51074,-0.51025 l 0,-39.49658 C 299.55807,1.01416 298.54343,0 297.29636,0 z m -116.22901,1.02148 116.229,0 c 0.68408,0 1.24023,0.55566 1.24023,1.23926 0,0 0,15.94824 0,27.44971 l -83.34424,0 c -3.04492,5.50586 -8.91113,9.24414 -15.64355,9.24414 -6.73535,0 -12.6001,-3.73486 -15.64355,-9.24414 l -4.07764,0 c 0,-11.50146 0,-27.44971 0,-27.44971 1e-5,-0.68359 0.55616,-1.23926 1.23975,-1.23926 z"
           inkscape:connector-curvature="0" />
        <g
           id="g265"
           enable-background="new    ">
          <path
             style="fill:#ffffff"
             id="path267"
             d="m 253.07761,32.95605 c 0.31738,0 0.60742,0.02832 0.87012,0.08398 0.26172,0.05566 0.48535,0.14746 0.67285,0.27539 0.18652,0.12695 0.33203,0.29688 0.43457,0.50781 0.10254,0.21191 0.1543,0.47266 0.1543,0.78418 0,0.33594 -0.0762,0.61523 -0.22949,0.83887 -0.15234,0.22461 -0.37891,0.40723 -0.67773,0.55078 0.41211,0.11816 0.71973,0.3252 0.92285,0.62109 0.20312,0.29589 0.30469,0.65234 0.30469,1.06934 0,0.33594 -0.0654,0.62695 -0.19629,0.87305 -0.13086,0.24512 -0.30762,0.44629 -0.52832,0.60156 -0.22168,0.15625 -0.47461,0.27148 -0.75781,0.3457 -0.28418,0.0752 -0.5752,0.1123 -0.875,0.1123 l -3.23635,0 0,-6.66406 3.14161,0 0,10e-6 z m -0.1875,2.69532 c 0.26172,0 0.47656,-0.0625 0.64551,-0.18652 0.16797,-0.12402 0.25195,-0.3252 0.25195,-0.60449 0,-0.15527 -0.0283,-0.2832 -0.084,-0.38184 -0.0566,-0.09961 -0.13086,-0.17676 -0.22461,-0.2334 -0.0937,-0.05566 -0.20117,-0.09473 -0.32227,-0.11621 -0.1211,-0.02148 -0.24805,-0.03223 -0.37793,-0.03223 l -1.37402,0 0,1.55469 1.48535,0 z m 0.0859,2.82812 c 0.14355,0 0.28027,-0.01367 0.41113,-0.04199 0.13086,-0.02832 0.24609,-0.0752 0.34668,-0.13965 0.0996,-0.06543 0.17871,-0.1543 0.23828,-0.2666 0.0596,-0.11133 0.0889,-0.25488 0.0889,-0.42871 0,-0.3418 -0.0967,-0.58594 -0.29004,-0.73242 -0.19336,-0.14551 -0.44922,-0.21875 -0.7666,-0.21875 l -1.59961,0 0,1.82812 1.57129,0 z"
             inkscape:connector-curvature="0" />
          <path
             style="fill:#ffffff"
             id="path269"
             d="m 255.78854,32.95605 1.64355,0 1.56055,2.63184 1.55078,-2.63184 1.63379,0 -2.47363,4.10645 0,2.55762 -1.46875,0 0,-2.59473 -2.44629,-4.06934 z"
             inkscape:connector-curvature="0" />
        </g>
        <g
           transform="matrix(0.872921,0,0,0.872921,50.12536,143.2144)"
           id="g5908_1_">
          <path
             style="fill:#ffffff"
             d="m 186.90065,-141.46002 c 0.006,8.68079 -7.02786,15.7215 -15.70808,15.72711 -8.68022,0.006 -15.72206,-7.02734 -15.7271,-15.70807 0,-0.006 0,-0.0123 0,-0.019 -0.005,-8.68079 7.02786,-15.7215 15.70808,-15.72656 8.68135,-0.006 15.72206,7.02734 15.7271,15.70813 0,0.006 0,0.0123 0,0.0184 z"
             rx="22.939548"
             type="arc"
             cy="264.3577"
             ry="22.939548"
             cx="296.35416"
             id="path5906_1_"
             inkscape:connector-curvature="0" />
          <g
             transform="translate(-289.6157,99.0653)"
             id="g5706_1_">
            <path
               d="m 473.57574,-253.32751 c 3.48541,3.48541 5.22839,7.75391 5.22839,12.80219 0,5.04938 -1.71277,9.27203 -5.13831,12.66791 -3.63531,3.5766 -7.93182,5.36432 -12.88947,5.36432 -4.89777,0 -9.11987,-1.77319 -12.66513,-5.31952 -3.54581,-3.54584 -5.31845,-7.78302 -5.31845,-12.71271 0,-4.92859 1.77264,-9.19598 5.31845,-12.80219 3.4552,-3.48651 7.67728,-5.22949 12.66513,-5.22949 5.0483,-10e-6 9.31404,1.74297 12.79939,5.22949 z m -23.11798,2.34484 c -2.94672,2.97638 -4.41953,6.46289 -4.41953,10.46234 0,3.99835 1.45828,7.45526 4.37424,10.37067 2.9165,2.9165 6.38849,4.37421 10.41705,4.37421 4.02856,0 7.53015,-1.47223 10.50653,-4.4184 2.82593,-2.73645 4.23944,-6.17706 4.23944,-10.32648 0,-4.11804 -1.43646,-7.61346 -4.30768,-10.48468 -2.87067,-2.87067 -6.34991,-4.30658 -10.43829,-4.30658 -4.0884,1e-5 -7.54638,1.44318 -10.37176,4.32892 z m 7.75449,8.70319 c -0.45029,-0.98169 -1.1243,-1.47284 -2.02322,-1.47284 -1.58917,0 -2.38345,1.07007 -2.38345,3.20911 0,2.13953 0.79428,3.2085 2.38345,3.2085 1.04938,0 1.79892,-0.52075 2.24866,-1.56451 l 2.20276,1.17297 c -1.04993,1.86548 -2.62509,2.79846 -4.72549,2.79846 -1.6199,0 -2.91763,-0.4967 -3.89206,-1.48901 -0.9761,-0.99341 -1.46274,-2.36273 -1.46274,-4.10852 0,-1.71503 0.50229,-3.07654 1.50748,-4.08502 1.00519,-1.00854 2.25702,-1.51257 3.75781,-1.51257 2.22012,0 3.80981,0.87488 4.77081,2.62286 l -2.38401,1.22057 z m 10.36337,0 c -0.45087,-0.98169 -1.11145,-1.47284 -1.98242,-1.47284 -1.62103,0 -2.43213,1.07007 -2.43213,3.20911 0,2.13953 0.8111,3.2085 2.43213,3.2085 1.05109,0 1.78717,-0.52075 2.20728,-1.56451 l 2.25201,1.17297 c -1.04828,1.86548 -2.62122,2.79846 -4.71771,2.79846 -1.61768,0 -2.9126,-0.4967 -3.88647,-1.48901 -0.97217,-0.99341 -1.45935,-2.36273 -1.45935,-4.10852 0,-1.71503 0.49445,-3.07654 1.48285,-4.08502 0.98785,-1.00854 2.2453,-1.51257 3.7735,-1.51257 2.21619,0 3.80365,0.87488 4.76129,2.62286 l -2.43098,1.22057 z"
               id="path5708_1_"
               inkscape:connector-curvature="0" />
          </g>
        </g>
        <g
           id="g275">
          <circle
             style="fill:#ffffff"
             sodipodi:ry="10.80664"
             sodipodi:rx="10.80664"
             sodipodi:cy="15.31348"
             sodipodi:cx="255.55124"
             id="circle277"
             r="10.80664"
             cy="15.31348"
             cx="255.55124"
             d="m 266.35788,15.31348 c 0,5.968343 -4.8383,10.80664 -10.80664,10.80664 -5.96834,0 -10.80664,-4.838297 -10.80664,-10.80664 0,-5.9683419 4.8383,-10.8066393 10.80664,-10.8066393 5.96834,0 10.80664,4.8382974 10.80664,10.8066393 z" />
          <g
             id="g279">
            <path
               id="path281"
               d="m 258.67819,12.18701 c 0,-0.4165 -0.33789,-0.75391 -0.75293,-0.75391 l -4.77344,0 c -0.41504,0 -0.75293,0.3374 -0.75293,0.75391 l 0,4.77295 1.33105,0 0,5.65186 3.61719,0 0,-5.65186 1.33105,0 0,-4.77295 10e-6,0 z"
               inkscape:connector-curvature="0" />
            <circle
               sodipodi:ry="1.63281"
               sodipodi:rx="1.63281"
               sodipodi:cy="9.1723604"
               sodipodi:cx="255.53854"
               id="circle283"
               r="1.63281"
               cy="9.1723604"
               cx="255.53854"
               d="m 257.17135,9.1723604 c 0,0.9017756 -0.73103,1.6328096 -1.63281,1.6328096 -0.90177,0 -1.63281,-0.731034 -1.63281,-1.6328096 0,-0.901776 0.73104,-1.63281 1.63281,-1.63281 0.90178,0 1.63281,0.731034 1.63281,1.63281 z" />
          </g>
          <path
             style="fill-rule:evenodd"
             id="path285"
             d="m 255.5239,3.40723 c -3.23242,0 -5.96875,1.12793 -8.20801,3.38379 -2.29785,2.3335 -3.44629,5.0957 -3.44629,8.28467 0,3.18897 1.14844,5.93164 3.44629,8.22656 2.29785,2.29443 5.03418,3.44189 8.20801,3.44189 3.21289,0 5.99805,-1.15625 8.35352,-3.47119 2.21973,-2.19727 3.33008,-4.92969 3.33008,-8.19727 0,-3.26758 -1.12988,-6.02881 -3.3877,-8.28467 -2.25977,-2.25585 -5.02442,-3.38378 -8.2959,-3.38378 z m 0.0293,2.09961 c 2.64844,0 4.89746,0.93408 6.74707,2.80127 1.86914,1.84717 2.80371,4.10303 2.80371,6.76758 0,2.68359 -0.91504,4.91064 -2.74512,6.68018 -1.92871,1.90625 -4.19629,2.85889 -6.80566,2.85889 -2.61035,0 -4.85938,-0.94287 -6.74707,-2.82959 -1.88965,-1.88672 -2.83301,-4.12305 -2.83301,-6.70947 0,-2.58691 0.9541,-4.84229 2.8623,-6.76758 1.83009,-1.8672 4.06934,-2.80128 6.71778,-2.80128 z"
             clip-rule="evenodd"
             inkscape:connector-curvature="0" />
        </g>
      </g>
    </g>
    <flowRoot
       xml:space="preserve"
       id="flowRoot3137"
       style="font-size:13px;font-style:normal;font-variant:normal;font-weight:300;font-stretch:normal;text-align:start;line-height:125%;letter-spacing:0px;word-spacing:0px;text-anchor:start;fill:#ffffff;fill-opacity:1;stroke:none;font-family:Roboto;-inkscape-font-specification:Roboto Light"
       transform="matrix(1.1616186,0,0,1.1616186,41.280064,404.93135)"><flowRegion
         id="flowRegion3139"><rect
           id="rect3141"
           width="461.58115"
           height="92.316231"
           x="134.92372"
           y="261.28311"
           style="font-style:normal;font-variant:normal;font-weight:300;font-stretch:normal;text-align:start;text-anchor:start;fill:#ffffff;font-family:Roboto;-inkscape-font-specification:Roboto Light" /></flowRegion><flowPara
         id="flowPara3143">Data collection and comparative analysis by <flowSpan
   style="font-size:13px;font-style:normal;font-variant:normal;font-weight:900;font-stretch:normal;text-align:start;line-height:125%;writing-mode:lr-tb;text-anchor:start;font-family:Roboto;-inkscape-font-specification:Roboto Heavy"
   id="flowSpan8755">Teresa Nobre </flowSpan></flowPara><flowPara
         id="flowPara6082"
         style="font-size:13px;font-style:normal;font-variant:normal;font-weight:300;font-stretch:normal;text-align:start;line-height:125%;writing-mode:lr-tb;text-anchor:start;font-family:Roboto;-inkscape-font-specification:Roboto Light">(working paper, July 2014)</flowPara><flowPara
         id="flowPara3145">Infographics by <flowSpan
   style="font-size:13px;font-style:normal;font-variant:normal;font-weight:900;font-stretch:normal;text-align:start;line-height:125%;writing-mode:lr-tb;text-anchor:start;font-family:Roboto;-inkscape-font-specification:Roboto Heavy"
   id="flowSpan8753">Journalism++</flowSpan>.</flowPara></flowRoot>    <path
       style="fill:none;stroke:#ffffff;stroke-width:1.00546086;stroke-linecap:butt;stroke-linejoin:miter;stroke-miterlimit:4;stroke-opacity:0.66820278;stroke-dasharray:none"
       d="m 199.93706,703.81034 382.55916,0"
       id="path8757"
       inkscape:connector-curvature="0" />
    <rect
       style="color:#000000;fill:#d5d2d1;fill-opacity:1;stroke:none;stroke-width:3;marker:none;visibility:visible;display:inline;overflow:visible;enable-background:accumulate"
       id="rect8874"
       width="602.36218"
       height="228.30713"
       x="55.674274"
       y="6.1246319" />
    <flowRoot
       style="font-size:13px;font-style:normal;font-variant:normal;font-weight:900;font-stretch:normal;text-align:start;line-height:125%;letter-spacing:0px;word-spacing:0px;writing-mode:lr-tb;text-anchor:start;fill:#98918f;fill-opacity:1;stroke:none;font-family:Roboto;-inkscape-font-specification:Roboto Heavy"
       id="flowRoot8787"
       xml:space="preserve"
       transform="matrix(2.0978894,0,0,2.0978894,-52.870093,-142.45936)"><flowRegion
         id="flowRegion8789"><rect
           y="76.392632"
           x="58.95118"
           height="173.57848"
           width="553.48608"
           id="rect8791"
           style="font-size:13px;font-style:normal;font-variant:normal;font-weight:900;font-stretch:normal;text-align:start;line-height:125%;writing-mode:lr-tb;text-anchor:start;fill:#98918f;fill-opacity:1;font-family:Roboto;-inkscape-font-specification:Roboto Heavy" /></flowRegion><flowPara
         id="flowPara8805">Considering that:</flowPara></flowRoot>    <g
       id="g15944"
       transform="translate(-2.7488281e-5,-37.009049)">
      <flowRoot
         transform="matrix(1.2452186,0,0,1.2452186,-1.2366339,-35.64093)"
         style="font-size:13px;font-style:normal;font-variant:normal;font-weight:500;font-stretch:normal;text-align:start;line-height:150%;letter-spacing:0px;word-spacing:0px;writing-mode:lr-tb;text-anchor:start;fill:#98918f;fill-opacity:1;stroke:none;font-family:Roboto;-inkscape-font-specification:Roboto Medium"
         id="flowRoot8759"
         xml:space="preserve"><flowRegion
           id="flowRegion8761"><rect
             style="font-size:13px;font-style:normal;font-variant:normal;font-weight:500;font-stretch:normal;text-align:start;line-height:150%;writing-mode:lr-tb;text-anchor:start;fill:#98918f;fill-opacity:1;font-family:Roboto;-inkscape-font-specification:Roboto Medium"
             y="76.392632"
             x="58.95118"
             height="172.82034"
             width="473.88315"
             id="rect8763" /></flowRegion><flowPara
           id="flowPara8765" /><flowPara
           id="flowPara8767" /><flowPara
           id="flowPara8771">    the language used by national laws is vague and in some cases too unclear,</flowPara><flowPara
           id="flowPara8775">    no national case law or legal scholarship was analysed,</flowPara><flowPara
           id="flowPara8781">    in one case, the only translated version of the national law available was not </flowPara><flowPara
           id="flowPara15957">    up to date,</flowPara></flowRoot>      <path
         transform="matrix(0.96042769,0,0,0.96042769,0.11799304,-3.3895175)"
         d="m 80.47478,131.17197 c 0,1.47883 -1.198833,2.67766 -2.677668,2.67766 -1.478836,0 -2.677669,-1.19883 -2.677669,-2.67766 0,-1.47884 1.198833,-2.67767 2.677669,-2.67767 1.478835,0 2.677668,1.19883 2.677668,2.67767 z"
         sodipodi:ry="2.6776681"
         sodipodi:rx="2.6776681"
         sodipodi:cy="131.17197"
         sodipodi:cx="77.797112"
         id="path8836"
         style="opacity:0.98999999;color:#000000;fill:#c1bcbb;fill-opacity:1;fill-rule:nonzero;stroke:none;stroke-width:1;marker:none;visibility:visible;display:inline;overflow:visible;enable-background:accumulate"
         sodipodi:type="arc" />
      <path
         sodipodi:type="arc"
         style="opacity:0.98999999;color:#000000;fill:#c1bcbb;fill-opacity:1;fill-rule:nonzero;stroke:none;stroke-width:1;marker:none;visibility:visible;display:inline;overflow:visible;enable-background:accumulate"
         id="path8838"
         sodipodi:cx="77.797112"
         sodipodi:cy="131.17197"
         sodipodi:rx="2.6776681"
         sodipodi:ry="2.6776681"
         d="m 80.47478,131.17197 c 0,1.47883 -1.198833,2.67766 -2.677668,2.67766 -1.478836,0 -2.677669,-1.19883 -2.677669,-2.67766 0,-1.47884 1.198833,-2.67767 2.677669,-2.67767 1.478835,0 2.677668,1.19883 2.677668,2.67767 z"
         transform="matrix(0.96042769,0,0,0.96042769,0.11799304,20.381393)" />
      <path
         transform="matrix(0.96042769,0,0,0.96042769,0.11799304,44.569336)"
         d="m 80.47478,131.17197 c 0,1.47883 -1.198833,2.67766 -2.677668,2.67766 -1.478836,0 -2.677669,-1.19883 -2.677669,-2.67766 0,-1.47884 1.198833,-2.67767 2.677669,-2.67767 1.478835,0 2.677668,1.19883 2.677668,2.67767 z"
         sodipodi:ry="2.6776681"
         sodipodi:rx="2.6776681"
         sodipodi:cy="131.17197"
         sodipodi:cx="77.797112"
         id="path8840"
         style="opacity:0.98999999;color:#000000;fill:#c1bcbb;fill-opacity:1;fill-rule:nonzero;stroke:none;stroke-width:1;marker:none;visibility:visible;display:inline;overflow:visible;enable-background:accumulate"
         sodipodi:type="arc" />
    </g>
    <flowRoot
       transform="matrix(1.5250797,0,0,1.5250797,-17.873095,82.550884)"
       style="font-size:13px;font-style:normal;font-variant:normal;font-weight:900;font-stretch:normal;text-align:start;line-height:89.99999762%;letter-spacing:0px;word-spacing:0px;writing-mode:lr-tb;text-anchor:start;fill:#7d7573;fill-opacity:1;stroke:none;font-family:Roboto;-inkscape-font-specification:Roboto Heavy"
       id="flowRoot8844"
       xml:space="preserve"><flowRegion
         id="flowRegion8846"><rect
           style="font-size:13px;font-style:normal;font-variant:normal;font-weight:900;font-stretch:normal;text-align:start;line-height:89.99999762%;writing-mode:lr-tb;text-anchor:start;fill:#7d7573;fill-opacity:1;font-family:Roboto;-inkscape-font-specification:Roboto Heavy"
           y="76.392632"
           x="58.95118"
           height="112.36121"
           width="383.21979"
           id="rect8848" /></flowRegion><flowPara
         id="flowPara8858">Consult a local lawyer to assess the permissibility of these acts!</flowPara></flowRoot>    <flowRoot
       xml:space="preserve"
       id="flowRoot4650"
       style="font-size:13px;font-style:normal;font-variant:normal;font-weight:300;font-stretch:normal;text-align:start;line-height:125%;letter-spacing:0px;word-spacing:0px;writing-mode:lr-tb;text-anchor:start;fill:#ffc3ad;fill-opacity:0.98823529;stroke:none;font-family:Roboto;-inkscape-font-specification:Roboto Light"
       transform="matrix(1.1616186,0,0,1.1616186,41.906816,373.91786)"><flowRegion
         id="flowRegion4652"><rect
           id="rect4654"
           width="352.3139"
           height="64.657372"
           x="134.92372"
           y="261.28311"
           style="font-size:13px;font-style:normal;font-variant:normal;font-weight:300;font-stretch:normal;text-align:start;line-height:125%;writing-mode:lr-tb;text-anchor:start;fill:#ffc3ad;fill-opacity:0.98823529;font-family:Roboto;-inkscape-font-specification:Roboto Light" /></flowRegion><flowPara
         id="flowPara4656">http://creativecommons.org/licenses/by/4.0/</flowPara></flowRoot>  </g>
</svg>
